<svg width="36" height="35" viewBox="0 0 36 35" fill="none" xmlns="http://www.w3.org/2000/svg">
<path d="M18.0968 35.0006C27.7255 35.0006 35.527 27.1676 35.527 17.5C35.527 7.83236 27.7255 -0.000610352 18.0968 -0.000610352C8.46809 -0.000610352 0.666626 7.83236 0.666626 17.5C0.666626 27.1676 8.46809 35.0006 18.0968 35.0006ZM8.64239 17.1208L25.448 10.615C26.228 10.332 26.9092 10.806 26.6565 11.9902L26.6579 11.9888L23.7965 25.524C23.5844 26.4836 23.0165 26.717 22.222 26.2649L17.8644 23.0404L15.7626 25.0734C15.5302 25.3067 15.3341 25.5036 14.8838 25.5036L15.1932 21.0511L23.2692 13.7257C23.6207 13.4151 23.1908 13.24 22.7274 13.5492L12.7472 19.8582L8.44485 18.5106C7.51088 18.2131 7.49054 17.5729 8.64239 17.1208Z" fill="white"/>
</svg>
