<svg width="35" height="35" viewBox="0 0 35 35" fill="none" xmlns="http://www.w3.org/2000/svg">
<path d="M17.4302 -0.000610352C7.80523 -0.000610352 0 7.83615 0 17.5C0 27.1638 7.80523 35.0006 17.4302 35.0006C27.0551 35.0006 34.8604 27.1638 34.8604 17.5C34.8604 7.83615 27.0551 -0.000610352 17.4302 -0.000610352ZM17.7996 27.6893C17.7999 27.6893 17.7993 27.6893 17.7996 27.6893H17.7954C16.0493 27.6885 14.3336 27.249 12.8099 26.4148L7.27969 27.8709L8.75977 22.4447C7.84672 20.8569 7.36639 19.0555 7.36719 17.21C7.36958 11.4366 12.0495 6.73969 17.7996 6.73969C20.5901 6.74076 23.2096 7.83134 25.179 9.81036C27.1488 11.7896 28.2328 14.4205 28.2318 17.2183C28.2294 22.9919 23.5489 27.6893 17.7996 27.6893Z" fill="white"/>
<path d="M17.803 8.5083C13.0202 8.5083 9.13045 12.4121 9.12832 17.2108C9.12779 18.8552 9.58631 20.4566 10.4541 21.8423L10.6603 22.1716L9.78419 25.3832L13.0659 24.5191L13.3827 24.7076C14.7138 25.5007 16.2399 25.9202 17.7958 25.9208H17.7993C22.5784 25.9208 26.4681 22.0167 26.4702 17.2177C26.471 14.8921 25.5699 12.7056 23.9329 11.0607C22.2959 9.4157 20.1187 8.5091 17.803 8.5083ZM22.9031 20.9525C22.6858 21.5635 21.6446 22.1214 21.1438 22.1967C20.6945 22.264 20.1264 22.292 19.502 22.0931C19.1232 21.9724 18.6378 21.8113 18.0158 21.5419C15.4011 20.4086 13.6933 17.766 13.563 17.5913C13.4327 17.4167 12.4986 16.1726 12.4986 14.8846C12.4986 13.597 13.172 12.9638 13.4109 12.7021C13.65 12.4402 13.9324 12.3747 14.1061 12.3747C14.2798 12.3747 14.4537 12.3763 14.6056 12.3838C14.7657 12.3918 14.9806 12.3227 15.192 12.833C15.4093 13.3569 15.9306 14.6446 15.9958 14.7754C16.0609 14.9065 16.1043 15.0593 16.0176 15.2339C15.9306 15.4086 15.6418 15.7854 15.366 16.1288C15.2503 16.2727 15.0995 16.4009 15.2516 16.6628C15.4035 16.9245 15.9269 17.7815 16.7016 18.4752C17.6974 19.3666 18.5373 19.6427 18.798 19.7738C19.0583 19.9047 19.2105 19.8828 19.3626 19.7084C19.5145 19.5338 20.0142 18.9444 20.1879 18.6824C20.3616 18.4205 20.5355 18.4643 20.7743 18.5516C21.0134 18.6387 22.2948 19.2718 22.5555 19.4026C22.8161 19.5338 22.9898 19.5992 23.055 19.7084C23.1204 19.8176 23.1204 20.3413 22.9031 20.9525Z" fill="white"/>
</svg>
