<svg width="35" height="35" viewBox="0 0 35 35" fill="none" xmlns="http://www.w3.org/2000/svg">
<path d="M14.4755 17.2729C14.4755 18.8174 15.7274 20.0693 17.2718 20.0693C18.8161 20.0693 20.0681 18.8173 20.0681 17.2729C20.0681 15.7285 18.8161 14.4765 17.2718 14.4765C15.7274 14.4765 14.4755 15.7285 14.4755 17.2729Z" fill="white"/>
<path fill-rule="evenodd" clip-rule="evenodd" d="M20.8488 24.3402C22.7769 24.3402 24.34 22.7771 24.34 20.8489V13.6969C24.34 11.7687 22.7769 10.2056 20.8488 10.2056H13.697C11.7689 10.2056 10.2058 11.7687 10.2058 13.6969V20.8489C10.2058 22.7771 11.7689 24.3402 13.697 24.3402H20.8488ZM12.6954 17.2729C12.6954 14.7494 14.7484 12.6964 17.2718 12.6964C19.7952 12.6964 21.8481 14.7494 21.8481 17.2729C21.8481 19.7964 19.7952 21.8494 17.2718 21.8494C14.7484 21.8494 12.6954 19.7963 12.6954 17.2729ZM21.8584 13.8274C22.464 13.8274 22.955 13.3364 22.955 12.7308C22.955 12.1251 22.464 11.6342 21.8584 11.6342C21.2528 11.6342 20.7618 12.1251 20.7618 12.7308C20.7618 13.3364 21.2528 13.8274 21.8584 13.8274Z" fill="white"/>
<path fill-rule="evenodd" clip-rule="evenodd" d="M35 17.5C35 27.1676 27.1673 35.0006 17.5 35.0006C7.83271 35.0006 0 27.1676 0 17.5C0 7.83236 7.83271 -0.000610352 17.5 -0.000610352C27.1673 -0.000610352 35 7.83236 35 17.5ZM13.697 8.42551H20.8488C23.7553 8.42551 26.12 10.7902 26.12 13.6969V20.8489C26.12 23.7556 23.7554 26.1203 20.8488 26.1203H13.697C10.7905 26.1203 8.42581 23.7556 8.42581 20.8489V13.6969C8.42581 10.7902 10.7905 8.42551 13.697 8.42551Z" fill="white"/>
</svg>
