<svg width="36" height="35" viewBox="0 0 36 35" fill="none" xmlns="http://www.w3.org/2000/svg">
<path fill-rule="evenodd" clip-rule="evenodd" d="M22.1273 22.9235C23.394 22.6402 24.9882 21.107 25.2991 19.8737C25.8179 17.4875 25.8179 15.0684 25.2992 12.6821C24.9882 11.4488 23.3947 9.91559 22.1274 9.6323C19.2318 9.07926 16.2954 9.07926 13.3993 9.6323C12.1326 9.91559 10.5389 11.4488 10.2274 12.6821C9.70923 15.0684 9.70923 17.4874 10.2274 19.8736C10.5389 21.1069 12.1326 22.6402 13.3993 22.9235C13.4558 22.9347 13.4978 22.9839 13.4978 23.0416V26.5374C13.4978 26.7121 13.7102 26.7983 13.8311 26.6717L17.0396 23.365C17.0627 23.3411 17.0946 23.3281 17.1278 23.329C18.7976 23.3755 20.469 23.2402 22.1273 22.9235ZM20.3326 21.4339C20.2053 21.3987 20.0828 21.3648 19.9662 21.3163C18.1802 20.5723 16.5366 19.6125 15.2347 18.1413C14.4944 17.3047 13.9149 16.3601 13.4251 15.3606C13.2167 14.9354 13.0377 14.4953 12.859 14.0559L12.7974 13.9045C12.6155 13.4583 12.8835 12.9972 13.1657 12.6609C13.4304 12.3453 13.7712 12.1038 14.1402 11.9257C14.4282 11.7868 14.7123 11.8669 14.9227 12.112C15.3774 12.6419 15.7952 13.199 16.1333 13.8133C16.3413 14.1911 16.2842 14.6529 15.9072 14.91C15.8338 14.9601 15.7656 15.0172 15.6976 15.0742L15.6468 15.1165C15.5719 15.1784 15.5015 15.2409 15.4502 15.3246C15.3564 15.4778 15.3519 15.6586 15.4122 15.8252C15.8771 17.1077 16.6605 18.1051 17.9464 18.6424L18.0013 18.6656C18.1891 18.7451 18.3798 18.8259 18.5958 18.8007C18.8526 18.7705 18.9971 18.5769 19.1424 18.382C19.2217 18.2757 19.3013 18.1691 19.3995 18.0885C19.6713 17.8653 20.0188 17.8623 20.3117 18.0484C20.6047 18.2346 20.8886 18.4344 21.1709 18.6364L21.229 18.6779C21.4865 18.8619 21.7417 19.0442 21.9793 19.2545C22.2251 19.4718 22.3098 19.7569 22.1713 20.0517C21.9181 20.5919 21.5494 21.0411 21.0177 21.3279C20.9151 21.3831 20.7988 21.4128 20.6815 21.4428C20.6271 21.4567 20.5725 21.4707 20.5189 21.4873C20.4559 21.468 20.3936 21.4508 20.3326 21.4339ZM22.4343 15.2493C22.0231 12.9304 20.1044 11.3739 17.7684 11.3082L17.7541 11.3081L17.7287 11.3077C17.6967 11.3072 17.6648 11.3067 17.6331 11.3086C17.4674 11.3175 17.3206 11.4566 17.3516 11.6312C17.3865 11.8281 17.5835 11.848 17.7459 11.8644L17.774 11.8673C17.8562 11.8759 17.9387 11.8831 18.0211 11.8902C18.2035 11.9061 18.3859 11.9219 18.5654 11.954C20.2976 12.2642 21.6852 13.7097 21.9269 15.457C21.9635 15.7209 21.9815 15.9877 21.9995 16.2543C22.0041 16.3218 22.0086 16.3894 22.0135 16.4569C22.0257 16.6254 22.11 16.7828 22.2972 16.7805C22.4784 16.7783 22.5736 16.618 22.5605 16.4494L22.5491 16.3002C22.5224 15.9484 22.4957 15.5954 22.4343 15.2493ZM21.3177 15.9367C21.317 15.9429 21.3164 15.9502 21.3157 15.9584C21.3127 15.9931 21.3083 16.0436 21.2956 16.0919C21.2336 16.3274 20.8779 16.3568 20.7961 16.1193C20.7718 16.0488 20.7682 15.9685 20.7681 15.8927C20.7673 15.3959 20.6598 14.8996 20.4102 14.4674C20.1537 14.0231 19.7618 13.6498 19.3023 13.4237C19.0244 13.2871 18.7239 13.2021 18.4193 13.1516C18.3367 13.1379 18.2535 13.1275 18.1703 13.1172C18.1195 13.1109 18.0686 13.1045 18.0179 13.0974C17.8558 13.0748 17.7691 12.9711 17.7769 12.8107C17.7841 12.6604 17.8935 12.5522 18.0566 12.5616C18.5927 12.5921 19.1105 12.7086 19.5872 12.9619C20.5563 13.4773 21.11 14.2907 21.2717 15.3769C21.2743 15.3946 21.2775 15.4122 21.2806 15.4298C21.2863 15.4612 21.292 15.4926 21.2944 15.5242C21.3009 15.6114 21.3058 15.6988 21.3114 15.8005L21.3186 15.929C21.3183 15.9313 21.318 15.9339 21.3177 15.9367ZM19.5453 15.5872C19.5655 15.767 19.6701 15.8757 19.8655 15.8721C19.9545 15.8661 20.0457 15.8041 20.0744 15.6806C20.0907 15.6101 20.0839 15.5326 20.0774 15.4589L20.0769 15.4529C19.9845 14.3823 19.3372 13.9122 18.4315 13.8466C18.2865 13.836 18.1576 13.9399 18.1354 14.073C18.1109 14.2193 18.1969 14.3456 18.3522 14.3838C18.4191 14.4003 18.4873 14.4065 18.5556 14.4127C18.6333 14.4198 18.7111 14.4269 18.7874 14.4491C18.9002 14.4819 19.008 14.5326 19.103 14.6021C19.3044 14.7494 19.4317 14.9721 19.4904 15.2126C19.5162 15.3182 19.528 15.4277 19.5398 15.5365C19.5416 15.5534 19.5434 15.5703 19.5453 15.5872Z" fill="white"/>
<path fill-rule="evenodd" clip-rule="evenodd" d="M35.1937 17.5C35.1937 27.1653 27.39 35.0006 17.7636 35.0006C8.13713 35.0006 0.333374 27.1653 0.333374 17.5C0.333374 7.83467 8.13713 -0.000610352 17.7636 -0.000610352C27.39 -0.000610352 35.1937 7.83467 35.1937 17.5ZM26.9786 12.2762L26.9843 12.2993C27.56 14.9394 27.56 17.6165 26.9843 20.2565L26.9785 20.2796C26.5128 22.1699 24.4132 24.1985 22.4849 24.6205L22.4632 24.625C20.9042 24.9236 19.3336 25.0727 17.7637 25.0727C17.3017 25.0727 16.8396 25.0582 16.3777 25.0323L14.2483 27.2546C13.7212 27.8058 12.7942 27.4307 12.7942 26.6669V24.5567C10.9379 24.0246 8.99466 22.0892 8.54815 20.2796L8.54298 20.2565C7.96723 17.6165 7.96723 14.9392 8.54298 12.2993L8.54815 12.2762C9.01448 10.3859 11.1142 8.35736 13.0417 7.93536L13.0641 7.93085C16.1822 7.3335 19.3445 7.3335 22.4633 7.93085L22.485 7.93536C24.4132 8.35736 26.5129 10.3858 26.9786 12.2762Z" fill="white"/>
</svg>
