<svg width="192" height="78" viewBox="0 0 192 78" fill="none" xmlns="http://www.w3.org/2000/svg">
<path d="M13.775 55.7015V69.0015H10.716V58.2095H4.712V69.0015H1.653V55.7015H13.775ZM22.8859 66.7785C23.4179 66.7785 23.8866 66.7025 24.2919 66.5505C24.7099 66.3858 25.0963 66.1325 25.4509 65.7905L27.0279 67.5005C26.0653 68.6025 24.6593 69.1535 22.8099 69.1535C21.6573 69.1535 20.6376 68.9318 19.7509 68.4885C18.8643 68.0325 18.1803 67.4055 17.6989 66.6075C17.2176 65.8095 16.9769 64.9038 16.9769 63.8905C16.9769 62.8898 17.2113 61.9905 17.6799 61.1925C18.1613 60.3818 18.8136 59.7548 19.6369 59.3115C20.4729 58.8555 21.4103 58.6275 22.4489 58.6275C23.4243 58.6275 24.3109 58.8365 25.1089 59.2545C25.9069 59.6598 26.5403 60.2551 27.0089 61.0405C27.4903 61.8131 27.7309 62.7315 27.7309 63.7955L20.1689 65.2585C20.3843 65.7651 20.7199 66.1451 21.1759 66.3985C21.6446 66.6518 22.2146 66.7785 22.8859 66.7785ZM22.4489 60.8695C21.7016 60.8695 21.0936 61.1101 20.6249 61.5915C20.1563 62.0728 19.9093 62.7378 19.8839 63.5865L24.8619 62.6175C24.7226 62.0855 24.4376 61.6611 24.0069 61.3445C23.5763 61.0278 23.0569 60.8695 22.4489 60.8695ZM38.9193 61.2115H33.6753V69.0015H30.7303V58.7795H38.9193V61.2115ZM51.3303 58.7795V69.0015H48.4993V67.8235C47.7646 68.7101 46.7006 69.1535 45.3073 69.1535C44.3446 69.1535 43.4706 68.9381 42.6853 68.5075C41.9126 68.0768 41.3046 67.4625 40.8613 66.6645C40.4179 65.8665 40.1963 64.9418 40.1963 63.8905C40.1963 62.8391 40.4179 61.9145 40.8613 61.1165C41.3046 60.3185 41.9126 59.7041 42.6853 59.2735C43.4706 58.8428 44.3446 58.6275 45.3073 58.6275C46.6119 58.6275 47.6316 59.0391 48.3663 59.8625V58.7795H51.3303ZM45.8203 66.7215C46.5676 66.7215 47.1883 66.4681 47.6823 65.9615C48.1763 65.4421 48.4233 64.7518 48.4233 63.8905C48.4233 63.0291 48.1763 62.3451 47.6823 61.8385C47.1883 61.3191 46.5676 61.0595 45.8203 61.0595C45.0603 61.0595 44.4333 61.3191 43.9393 61.8385C43.4453 62.3451 43.1983 63.0291 43.1983 63.8905C43.1983 64.7518 43.4453 65.4421 43.9393 65.9615C44.4333 66.4681 45.0603 66.7215 45.8203 66.7215ZM59.9454 69.1535C58.8561 69.1535 57.8744 68.9318 57.0004 68.4885C56.1391 68.0325 55.4614 67.4055 54.9674 66.6075C54.4861 65.8095 54.2454 64.9038 54.2454 63.8905C54.2454 62.8771 54.4861 61.9715 54.9674 61.1735C55.4614 60.3755 56.1391 59.7548 57.0004 59.3115C57.8744 58.8555 58.8561 58.6275 59.9454 58.6275C61.0221 58.6275 61.9594 58.8555 62.7574 59.3115C63.5681 59.7548 64.1571 60.3945 64.5244 61.2305L62.2254 62.4655C61.6934 61.5281 60.9271 61.0595 59.9264 61.0595C59.1538 61.0595 58.5141 61.3128 58.0074 61.8195C57.5008 62.3261 57.2474 63.0165 57.2474 63.8905C57.2474 64.7645 57.5008 65.4548 58.0074 65.9615C58.5141 66.4681 59.1538 66.7215 59.9264 66.7215C60.9398 66.7215 61.7061 66.2528 62.2254 65.3155L64.5244 66.5695C64.1571 67.3801 63.5681 68.0135 62.7574 68.4695C61.9594 68.9255 61.0221 69.1535 59.9454 69.1535ZM66.4675 62.4655H71.8445V64.8405H66.4675V62.4655ZM84.7191 59.4255C83.5791 58.7668 82.3567 58.3425 81.0521 58.1525V69.0015H77.9741V58.1525C76.6694 58.3425 75.4407 58.7668 74.2881 59.4255L73.2431 57.1265C74.1551 56.5818 75.1431 56.1701 76.2071 55.8915C77.2711 55.6128 78.3667 55.4735 79.4941 55.4735C80.6341 55.4735 81.7361 55.6128 82.8001 55.8915C83.8767 56.1701 84.8647 56.5818 85.7641 57.1265L84.7191 59.4255ZM92.696 58.6275C93.7853 58.6275 94.7353 58.8428 95.546 59.2735C96.3566 59.7041 96.9836 60.3185 97.427 61.1165C97.8703 61.9145 98.092 62.8455 98.092 63.9095C98.092 64.9481 97.883 65.8665 97.465 66.6645C97.047 67.4498 96.458 68.0641 95.698 68.5075C94.938 68.9381 94.064 69.1535 93.076 69.1535C91.7713 69.1535 90.7516 68.7418 90.017 67.9185V72.6875H87.053V63.9285C87.053 62.8771 87.2873 61.9525 87.756 61.1545C88.2246 60.3565 88.8833 59.7358 89.732 59.2925C90.5806 58.8491 91.5686 58.6275 92.696 58.6275ZM92.563 66.7215C93.3356 66.7215 93.9626 66.4618 94.444 65.9425C94.9253 65.4231 95.166 64.7455 95.166 63.9095C95.166 63.0608 94.9253 62.3768 94.444 61.8575C93.9626 61.3255 93.3356 61.0595 92.563 61.0595C91.7903 61.0595 91.1633 61.3191 90.682 61.8385C90.2133 62.3578 89.979 63.0418 89.979 63.8905C89.979 64.7391 90.2133 65.4231 90.682 65.9425C91.1506 66.4618 91.7776 66.7215 92.563 66.7215ZM111.447 58.7795V69.0015H108.616V67.8235C107.882 68.7101 106.818 69.1535 105.424 69.1535C104.462 69.1535 103.588 68.9381 102.802 68.5075C102.03 68.0768 101.422 67.4625 100.978 66.6645C100.535 65.8665 100.313 64.9418 100.313 63.8905C100.313 62.8391 100.535 61.9145 100.978 61.1165C101.422 60.3185 102.03 59.7041 102.802 59.2735C103.588 58.8428 104.462 58.6275 105.424 58.6275C106.729 58.6275 107.749 59.0391 108.483 59.8625V58.7795H111.447ZM105.937 66.7215C106.685 66.7215 107.305 66.4681 107.799 65.9615C108.293 65.4421 108.54 64.7518 108.54 63.8905C108.54 63.0291 108.293 62.3451 107.799 61.8385C107.305 61.3191 106.685 61.0595 105.937 61.0595C105.177 61.0595 104.55 61.3191 104.056 61.8385C103.562 62.3451 103.315 63.0291 103.315 63.8905C103.315 64.7518 103.562 65.4421 104.056 65.9615C104.55 66.4681 105.177 66.7215 105.937 66.7215ZM115.199 58.7795H118.144V62.7695H122.59V58.7795H125.554V69.0015H122.59V65.1825H118.144V69.0015H115.199V58.7795ZM134.205 69.1535C133.116 69.1535 132.134 68.9318 131.26 68.4885C130.399 68.0325 129.721 67.4055 129.227 66.6075C128.746 65.8095 128.505 64.9038 128.505 63.8905C128.505 62.8771 128.746 61.9715 129.227 61.1735C129.721 60.3755 130.399 59.7548 131.26 59.3115C132.134 58.8555 133.116 58.6275 134.205 58.6275C135.282 58.6275 136.219 58.8555 137.017 59.3115C137.828 59.7548 138.417 60.3945 138.784 61.2305L136.485 62.4655C135.953 61.5281 135.187 61.0595 134.186 61.0595C133.413 61.0595 132.774 61.3128 132.267 61.8195C131.76 62.3261 131.507 63.0165 131.507 63.8905C131.507 64.7645 131.76 65.4548 132.267 65.9615C132.774 66.4681 133.413 66.7215 134.186 66.7215C135.199 66.7215 135.966 66.2528 136.485 65.3155L138.784 66.5695C138.417 67.3801 137.828 68.0135 137.017 68.4695C136.219 68.9255 135.282 69.1535 134.205 69.1535ZM155.522 63.8525C155.522 65.4358 154.99 66.6898 153.926 67.6145C152.875 68.5265 151.368 69.0521 149.404 69.1915V72.6875H146.687V69.1915C144.724 69.0521 143.21 68.5328 142.146 67.6335C141.095 66.7215 140.569 65.4611 140.569 63.8525C140.569 62.2691 141.089 61.0405 142.127 60.1665C143.179 59.2925 144.699 58.7858 146.687 58.6465V54.9035H149.404V58.6465C151.368 58.7858 152.875 59.2988 153.926 60.1855C154.99 61.0721 155.522 62.2945 155.522 63.8525ZM143.438 63.8525C143.438 64.7645 143.698 65.4675 144.217 65.9615C144.737 66.4555 145.56 66.7658 146.687 66.8925V60.9455C145.56 61.0595 144.737 61.3571 144.217 61.8385C143.698 62.3071 143.438 62.9785 143.438 63.8525ZM149.404 66.8925C150.532 66.7658 151.355 66.4555 151.874 65.9615C152.406 65.4675 152.672 64.7645 152.672 63.8525C152.672 62.9785 152.406 62.3071 151.874 61.8385C151.355 61.3571 150.532 61.0595 149.404 60.9455V66.8925ZM163.571 66.7785C164.103 66.7785 164.572 66.7025 164.977 66.5505C165.395 66.3858 165.782 66.1325 166.136 65.7905L167.713 67.5005C166.751 68.6025 165.345 69.1535 163.495 69.1535C162.343 69.1535 161.323 68.9318 160.436 68.4885C159.55 68.0325 158.866 67.4055 158.384 66.6075C157.903 65.8095 157.662 64.9038 157.662 63.8905C157.662 62.8898 157.897 61.9905 158.365 61.1925C158.847 60.3818 159.499 59.7548 160.322 59.3115C161.158 58.8555 162.096 58.6275 163.134 58.6275C164.11 58.6275 164.996 58.8365 165.794 59.2545C166.592 59.6598 167.226 60.2551 167.694 61.0405C168.176 61.8131 168.416 62.7315 168.416 63.7955L160.854 65.2585C161.07 65.7651 161.405 66.1451 161.861 66.3985C162.33 66.6518 162.9 66.7785 163.571 66.7785ZM163.134 60.8695C162.387 60.8695 161.779 61.1101 161.31 61.5915C160.842 62.0728 160.595 62.7378 160.569 63.5865L165.547 62.6175C165.408 62.0855 165.123 61.6611 164.692 61.3445C164.262 61.0278 163.742 60.8695 163.134 60.8695ZM176.66 58.6275C177.749 58.6275 178.699 58.8428 179.51 59.2735C180.32 59.7041 180.947 60.3185 181.391 61.1165C181.834 61.9145 182.056 62.8455 182.056 63.9095C182.056 64.9481 181.847 65.8665 181.429 66.6645C181.011 67.4498 180.422 68.0641 179.662 68.5075C178.902 68.9381 178.028 69.1535 177.04 69.1535C175.735 69.1535 174.715 68.7418 173.981 67.9185V72.6875H171.017V63.9285C171.017 62.8771 171.251 61.9525 171.72 61.1545C172.188 60.3565 172.847 59.7358 173.696 59.2925C174.544 58.8491 175.532 58.6275 176.66 58.6275ZM176.527 66.7215C177.299 66.7215 177.926 66.4618 178.408 65.9425C178.889 65.4231 179.13 64.7455 179.13 63.9095C179.13 63.0608 178.889 62.3768 178.408 61.8575C177.926 61.3255 177.299 61.0595 176.527 61.0595C175.754 61.0595 175.127 61.3191 174.646 61.8385C174.177 62.3578 173.943 63.0418 173.943 63.8905C173.943 64.7391 174.177 65.4231 174.646 65.9425C175.114 66.4618 175.741 66.7215 176.527 66.7215Z" fill="#464045"/>
<path d="M21.5776 23.6609H21.5667L12.3354 23.6152C12.1458 24.4017 12.0077 25.1998 11.9222 26.0044L20.3772 26.0479C23.3388 23.5357 27.0919 22.1589 30.9694 22.1621H31.0507C31.1776 22.1621 31.3045 22.1654 31.4314 22.1697L32.3205 22.2176C32.4507 22.2285 32.5786 22.2394 32.7066 22.2535L32.7792 22.2622C32.879 22.2731 32.9755 22.284 33.072 22.2971L33.5806 22.37C33.6858 22.3863 33.7877 22.4037 33.8896 22.4223L33.9374 22.431C34.0697 22.4538 34.1911 22.4789 34.3115 22.5039L34.4102 22.5257C34.4991 22.5431 34.588 22.5627 34.6758 22.5833L35.1465 22.6998L35.5119 22.7978C35.6247 22.8308 35.7372 22.8653 35.8491 22.9012L36.696 23.1907C36.7958 23.2266 36.8934 23.2647 36.9899 23.3039L37.801 23.65C37.9062 23.6979 38.0071 23.7447 38.1068 23.7937L39.1771 24.3619C39.2866 24.4261 39.3864 24.486 39.4851 24.5469L40.1997 25.0084C40.2994 25.077 40.3927 25.1401 40.4849 25.2054L40.5586 25.2599C40.6237 25.3078 40.6931 25.3578 40.7614 25.4101L41.437 25.9434C41.5259 26.0163 41.605 26.0827 41.681 26.1502L42.3316 26.7434C42.4075 26.8153 42.4769 26.8849 42.5452 26.9546C42.5485 26.9579 42.5832 26.9894 42.5853 26.9938L43.391 27.8667L43.6057 28.1214L44.8126 29.7922L44.997 30.0894C45.0555 30.1884 45.1119 30.2842 45.1662 30.38L46.0814 32.2467L46.2115 32.5732C46.2549 32.6799 46.2928 32.7833 46.3308 32.8867C46.8263 34.2462 47.1343 35.6644 47.2525 37.1121L97.8065 37.7565C97.8605 36.1249 98.1618 34.511 98.7 32.9705C98.6956 32.8809 98.7092 32.7913 98.7401 32.7071C100.992 26.5878 106.673 22.4125 113.213 22.0696C113.404 22.0576 113.596 22.0507 113.787 22.0489L113.918 22.0446C114.099 22.0327 114.28 22.0334 114.46 22.0467L114.701 22.0554C114.84 22.0588 114.979 22.0642 115.118 22.0718L115.299 22.0848L115.404 22.0935C115.516 22.1027 115.628 22.1125 115.74 22.1229C115.879 22.1371 116.016 22.1512 116.152 22.1686L116.296 22.1871C118.511 22.4801 120.643 23.2252 122.56 24.3764C124.477 25.5277 126.139 27.0607 127.444 28.8812L134.934 28.9182L134.936 28.5437C134.934 28.5253 134.933 28.5068 134.934 28.4882L134.972 20.3357C134.972 20.1583 135.043 19.9895 135.169 19.8644C135.298 19.7427 135.467 19.674 135.644 19.6717L136.202 19.675L136.224 15.4626C136.224 15.2841 136.294 15.1143 136.422 14.9913C136.553 14.8735 136.72 14.805 136.895 14.7976L137.655 14.8009C136.22 12.2582 133.769 8.03609 131.988 5.60121C131.886 5.46169 131.843 5.28771 131.867 5.11632C131.89 4.94493 131.98 4.78968 132.116 4.68364C133.934 3.26429 134.314 2.8202 134.388 2.71788C134.597 2.424 134.782 2.00821 134.923 1.62725L114.247 1.54017L72.266 1.33336H72.2085C65.9831 1.33336 57.9705 6.3947 52.6625 10.1858C53.7209 9.78089 54.7966 9.54796 55.6706 9.63068C55.7704 9.64011 55.8668 9.67189 55.9528 9.7237C56.0387 9.7755 56.112 9.846 56.1672 9.93001L56.8623 9.41626C61.2703 6.15088 66.265 2.45012 73.2278 2.45012H73.3232C73.6041 2.4523 74.3035 2.4523 75.4486 2.4523L85.49 2.45012C85.5781 2.4491 85.6656 2.46574 85.7472 2.49905C85.8288 2.53235 85.903 2.58167 85.9654 2.6441C86.0278 2.70654 86.0771 2.78084 86.1106 2.86266C86.144 2.94448 86.1609 3.03217 86.1602 3.12061L86.1103 13.1388C86.1089 13.3159 86.0375 13.4853 85.9119 13.6098C85.7863 13.7342 85.6167 13.8036 85.4402 13.8027L56.2594 13.7559L56.254 15.0643C56.253 15.2096 56.2049 15.3506 56.1168 15.4659C56.0287 15.5813 55.9055 15.6646 55.766 15.7032C55.291 15.8371 54.5461 15.8643 54.0039 15.8643C53.1212 15.8643 48.6958 15.7827 48.2566 14.1859C48.1645 13.8539 48.2317 13.4947 48.4551 13.1148C47.7004 13.4708 47.3989 13.5981 47.3837 13.6046C47.3186 13.6313 47.2499 13.6481 47.1799 13.6547C46.976 13.6721 27.2966 15.3364 19.5617 16.2485L24.0868 16.2703C24.4078 16.2735 24.6832 16.4999 24.7418 16.8145C24.8405 17.3337 24.8893 17.8736 24.886 18.4189C24.8719 21.3588 23.4188 23.6609 21.5776 23.6609ZM21.5732 22.3276L21.5776 22.9948V22.3276C22.4993 22.3276 23.536 20.7188 23.5468 18.4124C23.5479 18.1381 23.5349 17.8681 23.5067 17.6026L15.8021 17.5645C14.2309 18.7487 13.2853 20.5751 12.716 22.2829L21.5732 22.3276ZM82.8691 17.6581H82.8669C82.69 17.6581 82.5204 17.5875 82.3953 17.462C82.2703 17.3365 82.2 17.1662 82.2 16.9887V16.6926L76.4604 16.6643L76.4571 16.9593C76.456 17.1363 76.3849 17.3057 76.2594 17.4302C76.134 17.5547 75.9645 17.6241 75.7881 17.6232H75.7848C75.608 17.6227 75.4387 17.5518 75.3139 17.4261C75.1891 17.3004 75.119 17.1302 75.119 16.9527L75.1201 16.5914C75.1233 15.8926 75.6493 15.3288 76.3096 15.3288L82.3648 15.3592C82.6652 15.3614 82.9504 15.4833 83.1694 15.7032C83.4069 15.9427 83.5425 16.2833 83.5403 16.6349L83.5392 16.9941C83.5378 17.1713 83.4665 17.3406 83.3408 17.4651C83.2152 17.5895 83.0456 17.6589 82.8691 17.6581ZM110.216 17.793H110.213C110.125 17.7929 110.039 17.7754 109.958 17.7417C109.877 17.7079 109.803 17.6585 109.742 17.5962C109.68 17.5339 109.631 17.4601 109.597 17.3788C109.564 17.2975 109.547 17.2105 109.547 17.1225L109.548 16.8276L103.807 16.7993L103.804 17.0953C103.802 17.2722 103.731 17.4412 103.606 17.5656C103.481 17.69 103.311 17.7596 103.135 17.7593H103.132C102.955 17.7587 102.785 17.6877 102.661 17.5618C102.536 17.4358 102.466 17.2654 102.466 17.0877V16.7285C102.47 16.0286 103.008 15.4746 103.656 15.4648L109.711 15.4953C110.364 15.4975 110.891 16.07 110.888 16.7688L110.886 17.1291C110.885 17.3062 110.814 17.4756 110.688 17.6001C110.562 17.7245 110.393 17.7939 110.216 17.793ZM111.588 13.8452H111.586L88.5545 13.8071C88.377 13.8069 88.2068 13.7365 88.0806 13.6112C88.0183 13.5493 87.969 13.4755 87.9354 13.3942C87.9019 13.3129 87.8849 13.2257 87.8854 13.1377L87.9364 3.11299C87.9378 2.93602 88.009 2.76682 88.1344 2.6424C88.2598 2.51797 88.4291 2.44845 88.6055 2.44903L111.638 2.44032C111.726 2.43931 111.813 2.45591 111.894 2.48917C111.976 2.52242 112.05 2.57165 112.112 2.63399C112.175 2.69632 112.224 2.7705 112.257 2.85219C112.291 2.93388 112.308 3.02143 112.307 3.10973L112.257 13.1812C112.256 13.3582 112.184 13.5274 112.059 13.6518C111.934 13.7763 111.764 13.8458 111.588 13.8452ZM89.229 12.4748L110.921 12.5097L110.964 3.77369L89.2724 3.78348L89.229 12.4748ZM134.41 13.8811H134.409L114.702 13.8506C114.525 13.8504 114.355 13.7795 114.23 13.6536C114.105 13.5276 114.034 13.357 114.034 13.1791L114.084 3.10211C114.086 2.92514 114.157 2.75594 114.282 2.63151C114.408 2.50709 114.577 2.43757 114.753 2.43815L124.888 2.43271C124.939 2.43271 124.989 2.43924 125.036 2.45012C128.907 3.32306 132.252 8.58032 134.467 12.059L134.923 12.7742C135.006 12.8712 135.06 12.9902 135.078 13.1171C135.096 13.244 135.078 13.3735 135.025 13.4901C134.971 13.6067 134.886 13.7055 134.779 13.7748C134.671 13.8441 134.546 13.881 134.418 13.8811H134.41ZM115.377 12.5184L133.189 12.5467C131.221 9.45544 128.037 4.55738 124.811 3.76824L115.42 3.7726L115.377 12.5184ZM54.9332 11.1687V11.1665L54.9343 10.9662C52.7536 11.1643 49.9168 13.0931 49.5828 13.8234C50.0199 14.126 51.8438 14.5309 54.0039 14.5309C54.404 14.5309 54.7011 14.5146 54.9169 14.4961L54.9332 11.2634V11.1687ZM56.267 12.4226L84.7733 12.4683L84.8166 3.78566L75.4486 3.78784L73.3157 3.78675H73.2278C66.7085 3.78675 61.9025 7.3471 57.6615 10.4873C57.1909 10.8367 56.7289 11.1796 56.2713 11.5115L56.2681 12.0667L56.267 12.4226ZM98.4712 39.1007H98.4625L46.6127 38.4389C46.4423 38.4374 46.2789 38.3705 46.1561 38.2519C46.0333 38.1333 45.9604 37.972 45.9523 37.8011C45.8856 36.1773 45.5522 34.5756 44.9655 33.0608L44.1577 31.3193L43.9994 31.0363C43.9513 30.9506 43.9018 30.8656 43.8508 30.7816L42.5647 28.9628C42.5051 28.8899 42.44 28.8137 42.376 28.7375L41.6191 27.919C41.5324 27.8319 41.4673 27.7688 41.4023 27.7056L40.8037 27.1581C40.731 27.0961 40.6595 27.0341 40.5868 26.9753L39.6976 26.2852L39.446 26.111L38.7791 25.68C38.6913 25.6256 38.5991 25.5723 38.508 25.5178L37.5169 24.9932C37.428 24.9497 37.3369 24.9061 37.2447 24.8648L35.5021 24.1954L35.1768 24.0941L35.1302 24.0789L34.807 23.9918L34.3733 23.8851C34.2929 23.866 34.2123 23.8478 34.1315 23.8307L34.0339 23.81C33.9254 23.7883 33.8159 23.7654 33.7053 23.7447L33.6511 23.736C33.5589 23.7186 33.4646 23.7034 33.3713 23.6881L32.8953 23.6196L32.6318 23.588L32.5624 23.5815C32.4461 23.5691 32.3297 23.5582 32.2132 23.5488L31.3901 23.5042C31.2749 23.4996 31.1596 23.4974 31.0442 23.4976H30.9683C27.3286 23.4946 23.8112 24.816 21.0679 27.2169C20.9449 27.325 20.7868 27.3842 20.6233 27.3834L16.4593 27.3628C16.3958 27.3759 16.3308 27.3796 16.2663 27.3736L16.186 27.3628L10.2273 27.3312C10.0035 27.3303 9.78848 27.4183 9.62903 27.5759C9.46958 27.7335 9.37866 27.948 9.37608 28.1726L9.3403 35.3325C9.34058 35.5571 9.42953 35.7724 9.58765 35.9313C9.74577 36.0902 9.96019 36.1798 10.1839 36.1804L12.0025 36.188C12.1178 36.1886 12.231 36.2189 12.3313 36.2761C12.4316 36.3333 12.5155 36.4154 12.575 36.5145C13.153 37.4833 14.1224 38.7208 15.4768 39.1889L17.1392 39.1976L17.1088 37.4778C17.1088 37.4593 17.1088 37.4397 17.111 37.419C17.2303 35.7809 17.6358 34.195 18.3168 32.706L18.6421 32.0464C18.6812 31.968 18.7213 31.894 18.7614 31.8211L19.1963 31.0809C19.244 31.0058 19.2917 30.9318 19.3416 30.8589L19.7135 30.3179C19.7927 30.2113 19.8697 30.1068 19.9499 30.0023L21.1904 28.6025L21.9983 27.8656C22.0666 27.8069 22.1306 27.7535 22.1946 27.7024L22.7606 27.267C22.8365 27.2104 22.9081 27.1581 22.9818 27.1081L24.4002 26.2351L24.642 26.1099C24.7483 26.0555 24.8329 26.012 24.9164 25.9728L25.2721 25.8074C25.3447 25.7747 25.413 25.7442 25.4835 25.7159L25.5432 25.6887L25.8088 25.5799L26.4703 25.3361C26.5633 25.3035 26.657 25.2726 26.7512 25.2435L27.0342 25.1565L27.4148 25.052L27.6425 24.9932L27.7477 24.9671L27.9928 24.9126L28.6911 24.7788C28.7887 24.7624 28.8885 24.7472 28.9882 24.7341L29.0663 24.7233C29.1455 24.7124 29.2268 24.7015 29.3081 24.6928L29.3819 24.6841C29.4599 24.6743 29.5391 24.6656 29.6183 24.659L29.6931 24.6514L30.0043 24.6264L30.72 24.5959L31.0345 24.5937L31.3544 24.5992L31.7827 24.6177C31.89 24.6231 31.9909 24.6296 32.0917 24.6394L32.5125 24.6797C32.5906 24.6862 32.673 24.6971 32.7543 24.7069L32.8226 24.7178C32.9235 24.7287 33.0265 24.745 33.1295 24.7603L33.8517 24.8931C33.9515 24.9137 34.0491 24.9344 34.1477 24.9584L34.806 25.1282L34.8493 25.1412C34.9437 25.1673 35.0337 25.1956 35.1258 25.225L35.5238 25.3556L35.7721 25.4427L35.796 25.4525C35.8042 25.4548 35.8121 25.4577 35.8199 25.4612L36.4737 25.7225L36.734 25.8378L37.9962 26.4909L39.1034 27.2136C39.1728 27.2626 39.2378 27.3105 39.3018 27.3584L39.7692 27.723L39.9785 27.8972L41.0997 28.9628C41.1572 29.0216 41.2136 29.0825 41.2689 29.1457L41.6506 29.5832C41.7211 29.667 41.7916 29.7541 41.862 29.8423L42.2307 30.3266L42.4476 30.6314L42.8087 31.1865C42.8597 31.2692 42.9096 31.3509 42.9573 31.4336L43.237 31.9299L43.3596 32.164L43.6762 32.8279C44.3682 34.3789 44.7654 36.046 44.8473 37.7434V39.0626C44.8398 39.2193 44.8311 39.3652 44.8213 39.5023L99.5707 40.2C99.5932 40.0393 99.6727 39.8922 99.7946 39.7856C99.9166 39.679 100.073 39.6202 100.234 39.6199H100.304C100.258 39.1421 100.234 38.6621 100.237 38.1853C100.265 32.6309 103.652 27.6305 108.747 25.4961C108.774 25.4801 108.801 25.4663 108.83 25.4547C108.934 25.4122 109.038 25.3731 109.145 25.3328C109.169 25.3234 109.193 25.3154 109.219 25.3088L109.507 25.2033L109.598 25.1717L109.64 25.1565H109.642L109.645 25.1543C109.798 25.1042 109.95 25.0552 110.106 25.0095H110.108L110.159 24.9932L110.2 24.9823C110.759 24.8146 111.329 24.6847 111.906 24.5937C112.479 24.5003 113.058 24.4432 113.638 24.4228H113.704C113.855 24.4174 114.009 24.412 114.163 24.412L114.366 24.4152C114.61 24.4207 114.853 24.4315 115.093 24.4479L115.328 24.4664C117.784 24.6793 120.139 25.5455 122.15 26.9758C124.162 28.4061 125.757 30.3488 126.771 32.6037C126.83 32.6626 126.877 32.732 126.91 32.8083C127.853 34.9943 128.211 37.3895 127.949 39.757L139.611 39.8136C139.84 39.8151 140.061 39.7253 140.225 39.5637C140.389 39.4022 140.483 39.1822 140.486 38.9516L140.512 33.776L140.507 33.7161C140.502 33.5941 140.529 33.4729 140.587 33.3655C140.645 33.2581 140.731 33.1686 140.836 33.1066L140.85 30.2831L139.907 30.2777L139.874 30.2787H139.871L127.089 30.2156C126.981 30.2147 126.874 30.1878 126.779 30.137C126.683 30.0863 126.601 30.0132 126.539 29.9239C125.348 28.182 123.805 26.7111 122.01 25.6064C120.216 24.5018 118.21 23.7881 116.123 23.5118L115.982 23.4944C115.757 23.4658 115.531 23.4429 115.304 23.4258L115.033 23.404C114.957 23.3996 114.88 23.396 114.804 23.3932C114.769 23.3932 114.736 23.3932 114.702 23.391L114.656 23.3899H114.627L114.396 23.3801H114.386C114.31 23.3768 114.233 23.3725 114.155 23.3725C114.092 23.3725 114.039 23.3747 113.987 23.3779L113.936 23.3801L113.81 23.3855C113.636 23.3888 113.461 23.3921 113.285 23.4019C107.371 23.7121 102.221 27.4357 100.091 32.9172C100.094 33.0024 100.081 33.0875 100.051 33.1675C99.4526 34.7922 99.1428 36.5097 99.1359 38.2419L99.1381 38.3105C99.1577 38.4078 99.1552 38.5084 99.1307 38.6046C99.1062 38.7009 99.0605 38.7904 98.9968 38.8664C98.9331 38.9425 98.8532 39.0031 98.7629 39.0439C98.6727 39.0846 98.5744 39.1044 98.4755 39.1018H98.4712V39.1007ZM18.718 15.0077C25.6581 14.1467 45.2995 12.477 46.9554 12.3355C47.1365 12.256 47.5876 12.0525 48.4171 11.6541C56.1022 5.88421 64.929 0 72.2085 0H72.2736L114.254 0.206807L135.835 0.296061C135.936 0.296351 136.036 0.319605 136.127 0.364085C136.218 0.408566 136.298 0.473123 136.361 0.552937C136.423 0.632205 136.467 0.724874 136.488 0.823774C136.509 0.922674 136.508 1.02516 136.483 1.12329C136.468 1.18315 136.111 2.60904 135.479 3.49395C135.313 3.72253 134.919 4.16118 133.445 5.3378C136.139 9.17788 139.851 15.9873 140.014 16.2877C140.044 16.3421 140.065 16.3998 140.079 16.4586C140.101 16.5533 140.598 18.7781 140.586 20.9605C140.581 22.358 140.56 26.357 140.547 28.9465L141.475 28.9508C141.501 28.9508 141.528 28.9519 141.554 28.9563C141.721 28.9637 141.88 29.0336 141.998 29.1522C142.123 29.2774 142.194 29.4483 142.192 29.6257L142.172 33.6856C142.171 33.8004 142.141 33.913 142.084 34.0126C142.028 34.1122 141.946 34.1953 141.848 34.2538L141.824 38.9559C141.818 39.54 141.582 40.0981 141.168 40.5085C140.755 40.919 140.196 41.1485 139.614 41.147L127.178 41.085C127.082 41.0848 126.986 41.0636 126.899 41.0229C126.811 40.9822 126.734 40.9229 126.671 40.8491C126.609 40.7752 126.563 40.6887 126.538 40.5955C126.512 40.5022 126.506 40.4044 126.522 40.3089C126.901 38.0231 126.638 35.6764 125.763 33.5321C125.708 33.4741 125.663 33.4066 125.631 33.333C124.733 31.2493 123.291 29.4484 121.456 28.1211C119.621 26.7939 117.463 25.9898 115.21 25.7943L115 25.7769C114.784 25.7627 114.565 25.7529 114.343 25.7486L114.199 25.7442C114.031 25.7431 113.885 25.7486 113.746 25.754L113.486 25.7627C112.608 25.8083 111.738 25.9462 110.89 26.1742L110.716 26.221L110.7 26.2275L110.518 26.2776C110.337 26.332 110.158 26.3897 109.98 26.4517C104.97 28.2129 101.603 32.9281 101.576 38.1907C101.573 38.821 101.619 39.4577 101.71 40.0847C101.742 40.1851 101.749 40.2915 101.732 40.3954C101.715 40.4993 101.674 40.5976 101.612 40.6825C101.549 40.7673 101.468 40.8363 101.375 40.8837C101.281 40.9311 101.178 40.9557 101.073 40.9554L101.064 40.9565H100.898C100.878 41.1191 100.8 41.2686 100.677 41.3767C100.554 41.4847 100.396 41.5436 100.233 41.5421H100.226L44.1664 40.827C44.0227 40.8255 43.8833 40.7775 43.7688 40.6903C43.6544 40.6031 43.571 40.4812 43.5309 40.3426C43.4539 40.2158 43.4214 40.0667 43.4387 39.9192C43.4691 39.6569 43.4929 39.3641 43.5081 39.0278L43.5103 37.7739C43.4326 36.2541 43.0748 34.762 42.4552 33.3732L42.1624 32.7615C42.1301 32.6977 42.0972 32.6342 42.0637 32.571L41.8013 32.1074C41.7578 32.0324 41.7134 31.958 41.6679 31.8842L41.3405 31.3835C41.2776 31.2921 41.2125 31.1985 41.1453 31.1082L40.8156 30.6728C40.7521 30.5931 40.6874 30.5143 40.6215 30.4366L40.2767 30.0393L40.1281 29.8793L39.1066 28.9106C39.046 28.8581 38.9845 28.8066 38.9223 28.756L38.4929 28.4197C38.4365 28.3774 38.3798 28.3356 38.3226 28.2945L36.978 27.4488L36.1755 27.0493L35.9489 26.9481L35.3525 26.7086C35.3439 26.7069 35.3356 26.7043 35.3275 26.701C35.2408 26.6683 35.1671 26.6422 35.0933 26.6183L34.7235 26.4953C34.6455 26.4735 34.5631 26.4463 34.4806 26.4223C34.4638 26.4169 34.4468 26.4118 34.4297 26.4071L33.8365 26.2547C33.7514 26.2345 33.6661 26.2153 33.5806 26.197L32.9137 26.0751L32.6535 26.0381L32.583 26.0294C32.513 26.02 32.4428 26.0116 32.3726 26.0044L31.9757 25.9652L31.709 25.9478L31.3132 25.9314L31.029 25.9249C30.938 25.9249 30.8425 25.9271 30.7471 25.9293L30.0954 25.9565L29.82 25.9782L29.7473 25.9859C29.6747 25.9935 29.6063 25.9989 29.5369 26.0076L29.461 26.0163L29.2463 26.0425L29.1704 26.0544C29.0869 26.0653 28.9991 26.0795 28.9134 26.0936L27.9624 26.2885C27.8952 26.3039 27.8283 26.3206 27.7618 26.3385L27.4094 26.4365C27.3335 26.4583 27.2576 26.4833 27.1806 26.5072C27.0721 26.5399 26.9908 26.5671 26.9084 26.5954L26.3033 26.8196C26.2296 26.8479 26.1515 26.8806 26.0734 26.9132L25.4987 27.1734L25.271 27.2855L23.7474 28.202L23.5566 28.338L23.0447 28.7331C22.9851 28.7801 22.9261 28.828 22.868 28.8768L21.5927 30.1166L21.0256 30.7958C20.9389 30.909 20.8684 31.0037 20.7979 31.1005L20.4585 31.5925C20.4119 31.6611 20.3717 31.7231 20.3338 31.7863L19.5335 33.2644C18.9245 34.5954 18.5573 36.0248 18.4491 37.4854L18.4903 39.855C18.4913 39.9441 18.4747 40.0324 18.4413 40.1149C18.4079 40.1975 18.3584 40.2725 18.2959 40.3356C18.2333 40.3987 18.1588 40.4487 18.0767 40.4826C17.9947 40.5165 17.9067 40.5337 17.818 40.5331L15.363 40.5222C15.2956 40.521 15.2288 40.51 15.1645 40.4896C13.8286 40.0694 12.6108 39.0452 11.6251 37.5203L10.1774 37.5137C9.59955 37.5126 9.04572 37.2813 8.6375 36.8708C8.22927 36.4602 8 35.9038 8 35.3238L8.03579 28.1639C8.04264 27.5866 8.27605 27.0354 8.68535 26.6299C9.09465 26.2243 9.64679 25.9972 10.2219 25.9978H10.5754C10.7966 23.6413 12.0393 15.8327 18.7191 15.0066L18.718 15.0077ZM136.758 27.8319C136.784 27.8299 136.811 27.8299 136.838 27.8319L139.168 27.8439L139.2 21.0268L136.864 21.0138H136.859L136.306 21.0105L136.277 27.8286L136.758 27.8319ZM137.54 19.6826L138.381 19.688L139.178 19.6913C139.099 18.7445 138.963 17.8034 138.77 16.8733L138.365 16.1408L137.558 16.1353L137.54 19.6826ZM31.0757 50.0016C29.5303 50.007 27.9992 49.7043 26.5712 49.1111C25.1433 48.5178 23.8469 47.6459 22.7574 46.5458C18.216 41.9753 18.2539 34.5782 22.8387 30.0534C25.0341 27.8833 27.9945 26.6714 31.0757 26.6814C32.6209 26.6758 34.1518 26.9783 35.5795 27.5713C37.0073 28.1644 38.3035 29.0362 39.3929 30.1362C40.472 31.2211 41.3263 32.5098 41.9067 33.9278C42.4871 35.3458 42.782 36.8652 42.7745 38.3982C42.7669 39.9313 42.457 41.4476 41.8627 42.8598C41.2683 44.272 40.4013 45.5521 39.3116 46.6263C37.1048 48.8032 34.1803 50.0005 31.0757 50.0005V50.0016ZM31.0757 28.0137C28.3469 28.0054 25.7254 29.0797 23.7821 31.0026C22.817 31.9538 22.049 33.0874 21.5226 34.338C20.9961 35.5886 20.7215 36.9314 20.7147 38.2891C20.7078 39.6467 20.9688 40.9923 21.4826 42.2482C21.9964 43.5041 22.7529 44.6454 23.7084 45.6064C24.6736 46.5805 25.8218 47.3527 27.0864 47.8783C28.351 48.4039 29.7069 48.6724 31.0757 48.6683C33.8044 48.6761 36.4257 47.6019 38.3692 45.6793C39.3344 44.7281 40.1024 43.5945 40.6289 42.3439C41.1553 41.0932 41.4299 39.7503 41.4366 38.3926C41.4434 37.0349 41.1822 35.6893 40.6682 34.4335C40.1542 33.1776 39.3976 32.0363 38.4419 31.0755C37.4773 30.1008 36.3295 29.3282 35.0649 28.8026C33.8004 28.277 32.4443 28.0088 31.0757 28.0137ZM31.0757 47.0149C29.9259 47.0192 28.7867 46.7942 27.7243 46.3528C26.662 45.9115 25.6975 45.2626 24.8871 44.4439C24.0812 43.6391 23.4433 42.6811 23.0106 41.6259C22.5779 40.5707 22.3591 39.4396 22.367 38.2985C22.3701 37.1572 22.5999 36.0279 23.043 34.9768C23.4862 33.9257 24.1337 32.9739 24.9478 32.177C26.5799 30.5612 28.7822 29.6585 31.0746 29.6659C31.4173 29.6659 31.7556 29.6855 32.0896 29.7236C32.133 29.7247 32.1763 29.7302 32.2175 29.74C34.1295 29.986 35.9053 30.8646 37.2643 32.2369C38.1725 33.1473 38.8656 34.2507 39.2925 35.4658C39.7195 36.6808 39.8694 37.9765 39.7312 39.2574L39.728 39.2923C39.5112 41.2708 38.6188 43.113 37.2024 44.506C35.57 46.1209 33.3677 47.0228 31.0757 47.0149ZM30.3481 40.4221C30.4564 40.422 30.5632 40.4481 30.6593 40.4983C30.772 40.5444 30.8695 40.6216 30.9403 40.721C31.0111 40.8204 31.0524 40.9379 31.0594 41.0599L31.3999 45.675L31.4324 45.6728L31.8185 41.0643C31.8292 40.9382 31.8755 40.8178 31.952 40.7172C32.0284 40.6166 32.1318 40.5399 32.2501 40.4961L32.275 40.482C32.3898 40.4348 32.5153 40.4203 32.6377 40.4401C32.7601 40.4599 32.8748 40.5131 32.969 40.5941L36.3306 43.4861L36.3761 43.4404L33.5079 40.0618C33.4277 39.9678 33.3753 39.8532 33.3567 39.7308C33.3381 39.6084 33.354 39.4833 33.4028 39.3696L33.4234 39.3249C33.471 39.2115 33.5492 39.1138 33.6492 39.0426C33.7492 38.9715 33.8671 38.9298 33.9894 38.9222L38.4354 38.5967L38.4386 38.5347L33.9927 38.1646C33.87 38.1549 33.7524 38.1114 33.6529 38.0388C33.5534 37.9661 33.4758 37.8673 33.4288 37.7532L33.4104 37.7097C33.3635 37.5956 33.3493 37.4708 33.3692 37.3491C33.3891 37.2274 33.4424 37.1137 33.5231 37.0207L36.5941 33.4766C36.5891 33.4705 36.584 33.4643 36.5789 33.4581L32.9885 36.484C32.887 36.5688 32.763 36.6219 32.6318 36.6368C32.5006 36.6517 32.3679 36.6277 32.2501 36.5679C32.14 36.5164 32.045 36.4376 31.9738 36.339C31.9026 36.2403 31.8577 36.125 31.8434 36.004L31.4877 31.1822L31.0844 35.9997C31.0738 36.1228 31.0294 36.2404 30.956 36.3396C30.8827 36.4388 30.7833 36.5156 30.669 36.5613L30.6267 36.5787C30.5123 36.6255 30.3873 36.6399 30.2654 36.6203C30.1434 36.6007 30.0291 36.5479 29.9349 36.4677L26.261 33.3079L29.396 36.9978C29.4825 37.0991 29.5367 37.2241 29.5514 37.3568C29.5661 37.4894 29.5406 37.6233 29.4784 37.7412C29.4312 37.8541 29.3533 37.9514 29.2536 38.0219C29.1538 38.0923 29.0363 38.1331 28.9145 38.1396L24.0749 38.4933L28.9112 38.8972C29.035 38.9072 29.1535 38.9516 29.2535 39.0254C29.3534 39.0992 29.4309 39.1996 29.4773 39.3151L29.4936 39.351C29.5404 39.4651 29.5546 39.5899 29.5347 39.7116C29.5148 39.8333 29.4615 39.947 29.3808 40.04L26.2068 43.7038L29.9154 40.5788C30.0372 40.477 30.1906 40.4212 30.3491 40.421L30.3481 40.4221ZM27.2283 44.5909C28.0893 45.1199 29.0457 45.4606 30.0509 45.5988L29.8156 42.4107L27.2283 44.5909ZM33.0482 42.4259L32.7933 45.4704C33.6873 45.2578 34.5334 44.8782 35.2874 44.3514L33.0482 42.4259ZM23.8591 39.8169C24.0804 40.9017 24.5484 41.9205 25.2265 42.7938L27.5406 40.1228L23.8591 39.8169ZM35.346 40.1598L37.2274 42.377C37.7183 41.6379 38.0694 40.8143 38.263 39.9475L35.346 40.1598ZM35.3622 36.9412L38.3421 37.1883C38.1968 36.2691 37.8765 35.3866 37.3987 34.589L35.3622 36.9412ZM25.1213 34.035C24.4453 34.964 23.9969 36.0398 23.8125 37.1752L27.5569 36.9031L25.1213 34.035ZM32.8335 31.2192L33.0872 34.6533L35.5856 32.5471C34.7721 31.9141 33.8341 31.4616 32.8335 31.2192ZM27.0298 32.2086L29.8547 34.6358L30.1539 31.0657C29.0392 31.2004 27.9705 31.5915 27.0309 32.2086H27.0298ZM31.9876 40.5081H31.9844L30.8978 40.5026C30.8099 40.5024 30.7229 40.4848 30.6418 40.4508C30.5607 40.4168 30.487 40.3671 30.425 40.3045L29.6606 39.5361C29.5988 39.4739 29.5499 39.4 29.5168 39.3188C29.4837 39.2375 29.4669 39.1504 29.4675 39.0626L29.4719 37.9796C29.473 37.8033 29.5445 37.6345 29.6714 37.5094L30.4424 36.7475C30.5032 36.6831 30.5771 36.6326 30.6591 36.5994C30.741 36.5662 30.8291 36.551 30.9174 36.5548L32.005 36.5592C32.1817 36.5613 32.352 36.631 32.4767 36.7562L33.2423 37.5268C33.367 37.6531 33.4375 37.8229 33.4364 38.0003L33.431 39.0822C33.4304 39.1698 33.4126 39.2565 33.3786 39.3372C33.3445 39.4179 33.2949 39.4911 33.2325 39.5524L32.4593 40.3154C32.3334 40.4392 32.164 40.5084 31.9876 40.5081ZM31.1819 39.1693L31.7133 39.1736L32.0928 38.7992L32.095 38.2691L31.7209 37.8914L31.1885 37.8903L30.81 38.2626L30.8078 38.7938L31.1819 39.1693ZM114.355 50.0016C112.81 50.007 111.279 49.7043 109.851 49.1111C108.423 48.5178 107.126 47.6459 106.037 46.5458C101.496 41.9753 101.533 34.5782 106.119 30.0534C108.314 27.8834 111.274 26.6714 114.355 26.6814C117.503 26.6814 120.458 27.907 122.672 30.1362C123.751 31.2211 124.606 32.5097 125.186 33.9277C125.767 35.3457 126.062 36.865 126.054 38.398C126.047 39.931 125.737 41.4473 125.143 42.8596C124.549 44.2718 123.682 45.552 122.592 46.6263C120.384 48.8032 117.46 50.0005 114.356 50.0005L114.355 50.0016ZM114.355 28.0137C111.627 28.0057 109.005 29.0799 107.062 31.0026C106.097 31.9539 105.329 33.0875 104.802 34.3381C104.276 35.5887 104.002 36.9315 103.995 38.2891C103.988 39.6467 104.249 40.9922 104.763 42.2481C105.276 43.504 106.033 44.6454 106.988 45.6064C107.953 46.5805 109.101 47.3527 110.366 47.8783C111.631 48.4039 112.987 48.6724 114.355 48.6683C117.084 48.6765 119.705 47.6022 121.649 45.6793C122.614 44.7281 123.382 43.5945 123.908 42.3439C124.435 41.0932 124.709 39.7503 124.716 38.3926C124.723 37.0349 124.462 35.6893 123.948 34.4335C123.434 33.1776 122.677 32.0363 121.721 31.0755C120.757 30.1008 119.609 29.3283 118.344 28.8027C117.08 28.277 115.724 28.0088 114.355 28.0137ZM114.355 47.0149C113.206 47.0191 112.067 46.794 111.004 46.3527C109.942 45.9113 108.978 45.2625 108.168 44.4439C107.362 43.6393 106.723 42.6813 106.291 41.6261C105.858 40.5709 105.639 39.4396 105.647 38.2985C105.65 37.1572 105.879 36.0279 106.322 34.9768C106.766 33.9256 107.413 32.9738 108.227 32.177C109.86 30.561 112.062 29.6584 114.355 29.6659C114.697 29.6659 115.035 29.6855 115.369 29.7236C115.412 29.7247 115.456 29.7302 115.497 29.74C117.409 29.986 119.185 30.8646 120.544 32.2369C121.626 33.323 122.4 34.6796 122.785 36.1665C123.17 37.6533 123.153 39.2164 122.734 40.6942C122.213 42.5197 121.113 44.1246 119.6 45.2651C118.088 46.4057 116.246 47.0197 114.354 47.0138L114.355 47.0149ZM113.627 40.4221C113.735 40.4217 113.842 40.4474 113.938 40.4972C114.051 40.5436 114.148 40.6211 114.219 40.7206C114.29 40.8201 114.332 40.9378 114.339 41.0599L114.679 45.675L114.712 45.6728L115.098 41.0643C115.109 40.9387 115.155 40.8188 115.231 40.7182C115.306 40.6177 115.409 40.5407 115.526 40.4961L115.556 40.482C115.67 40.4352 115.795 40.421 115.917 40.4407C116.039 40.4605 116.153 40.5136 116.247 40.5941L119.611 43.4861L119.656 43.4404L116.787 40.0618C116.708 39.9689 116.655 39.8555 116.636 39.7344C116.617 39.6133 116.632 39.4892 116.679 39.3761L116.705 39.3217C116.752 39.2087 116.83 39.1113 116.93 39.0407C117.03 38.9701 117.147 38.929 117.269 38.9222L121.716 38.5967L121.718 38.5347L117.273 38.1646C117.152 38.155 117.036 38.1124 116.937 38.0415C116.838 37.9705 116.761 37.8739 116.713 37.7619L116.691 37.7107C116.644 37.5967 116.629 37.4716 116.649 37.3497C116.668 37.2277 116.722 37.1138 116.803 37.0207L119.874 33.4755L119.858 33.4581L116.269 36.484C116.167 36.5692 116.043 36.6226 115.911 36.6375C115.779 36.6524 115.646 36.6282 115.527 36.5679C115.418 36.5159 115.324 36.4369 115.253 36.3383C115.183 36.2397 115.138 36.1246 115.124 36.004L114.768 31.18L114.364 35.9997C114.353 36.1223 114.309 36.2396 114.237 36.3387C114.164 36.4379 114.065 36.5149 113.952 36.5613L113.908 36.5787C113.794 36.6259 113.668 36.6405 113.546 36.6209C113.424 36.6014 113.309 36.5484 113.214 36.4677L109.539 33.309L112.676 36.9989C112.84 37.1948 112.879 37.4669 112.776 37.6999C112.677 37.9263 112.44 38.1211 112.193 38.1407L107.353 38.4944L112.19 38.8983C112.439 38.92 112.656 39.0778 112.754 39.3086L112.772 39.3521C112.819 39.4661 112.833 39.591 112.813 39.7127C112.793 39.8345 112.74 39.9482 112.659 40.0411L109.486 43.706L113.195 40.5799C113.316 40.4784 113.469 40.4226 113.627 40.4221ZM110.508 44.5909C111.37 45.1199 112.325 45.4606 113.33 45.5988L113.096 42.4107L110.508 44.5909ZM116.328 42.4259L116.073 45.4704C116.967 45.2577 117.813 44.8782 118.567 44.3514L116.328 42.4259ZM107.139 39.8169C107.36 40.9018 107.829 41.9206 108.507 42.7938L110.82 40.1228L107.139 39.8169ZM118.626 40.1598L120.507 42.377C120.998 41.638 121.349 40.8144 121.543 39.9475L118.626 40.1598ZM118.642 36.9412L121.621 37.1883C121.476 36.269 121.156 35.3865 120.678 34.589L118.642 36.9412ZM108.402 34.035C107.726 34.964 107.277 36.0398 107.092 37.1752L110.837 36.9031L108.402 34.035ZM116.114 31.2192L116.367 34.6522L118.865 32.5471C118.052 31.9142 117.114 31.4616 116.114 31.2192ZM110.31 32.2086L113.134 34.6358L113.434 31.0657C112.319 31.2003 111.25 31.5914 110.31 32.2086ZM115.268 40.5081H115.265L114.177 40.5026C114.089 40.5024 114.002 40.4848 113.921 40.4508C113.84 40.4168 113.767 40.3671 113.705 40.3045L112.94 39.5361C112.878 39.4738 112.83 39.3999 112.797 39.3187C112.763 39.2374 112.747 39.1504 112.747 39.0626L112.753 37.9796C112.753 37.8033 112.824 37.6345 112.951 37.5094L113.722 36.7475C113.849 36.6234 114.031 36.57 114.197 36.5548L115.285 36.5592C115.462 36.5603 115.632 36.6319 115.757 36.7583L116.522 37.5268C116.647 37.6531 116.716 37.8229 116.715 38.0003L116.711 39.0822C116.71 39.1699 116.693 39.2566 116.658 39.3374C116.624 39.4181 116.575 39.4912 116.512 39.5524L115.739 40.3154C115.613 40.439 115.444 40.5081 115.268 40.5081ZM114.461 39.1693L114.993 39.1736L115.372 38.7992L115.375 38.2691L115 37.8914L114.469 37.8903L114.09 38.2626L114.087 38.7938L114.461 39.1693ZM145.961 25.0193C145.873 25.0192 145.787 25.0017 145.706 24.9679C145.625 24.9341 145.552 24.8847 145.49 24.8224C145.428 24.7601 145.379 24.6863 145.346 24.605C145.313 24.5237 145.296 24.4367 145.296 24.3488C145.297 24.1721 145.369 24.0031 145.494 23.879C145.62 23.7549 145.789 23.6859 145.965 23.687H145.969L177.13 23.8917C180.724 22.9708 181.476 20.7286 181.629 19.6467L145.604 19.503C145.516 19.5029 145.43 19.4854 145.349 19.4516C145.268 19.4179 145.194 19.3684 145.133 19.3062C145.071 19.2439 145.022 19.17 144.988 19.0888C144.955 19.0075 144.938 18.9204 144.938 18.8325C144.94 18.6555 145.011 18.4863 145.136 18.3619C145.261 18.2375 145.431 18.168 145.607 18.1686H145.609L182.331 18.3144C182.676 18.3155 182.964 18.5789 182.995 18.9218C183 18.9686 183.339 23.5259 177.74 25.1097C176.054 30.1372 172.298 30.306 171.805 30.306L171.757 30.3049L171.588 30.3038C170.305 35.2127 166.836 35.6557 165.629 35.6557C165.461 35.6557 165.336 35.6481 165.27 35.6405L163.033 35.6078C163.03 35.6309 163.026 35.6538 163.021 35.6764C161.796 40.8303 158.226 41.2874 156.999 41.2874C156.827 41.2874 156.701 41.2798 156.634 41.2733L145.555 40.9946C145.468 40.9926 145.381 40.9734 145.301 40.9379C145.221 40.9024 145.148 40.8514 145.088 40.7878C145.027 40.7243 144.98 40.6493 144.948 40.5673C144.917 40.4853 144.901 40.3979 144.903 40.31C144.905 40.2219 144.924 40.1351 144.96 40.0546C144.995 39.9741 145.046 39.9015 145.11 39.8411C145.174 39.7806 145.249 39.7336 145.331 39.7027C145.414 39.6719 145.501 39.6578 145.589 39.6613L156.693 39.9399C156.718 39.9421 156.745 39.9432 156.77 39.9475C156.916 39.966 160.419 40.372 161.663 35.5893L145.759 35.3608C145.582 35.3585 145.414 35.2861 145.29 35.1594C145.167 35.0327 145.098 34.8621 145.1 34.6848C145.103 34.5091 145.175 34.3417 145.3 34.2188C145.425 34.0958 145.594 34.0271 145.769 34.0274H145.778L165.315 34.3071C165.345 34.3071 165.372 34.3104 165.401 34.3148C165.546 34.3322 168.882 34.7207 170.2 30.2951L145.88 30.1449C145.793 30.1446 145.706 30.1269 145.625 30.093C145.544 30.059 145.471 30.0094 145.409 29.9469C145.347 29.8844 145.298 29.8103 145.265 29.7289C145.232 29.6474 145.215 29.5602 145.216 29.4722C145.217 29.2955 145.289 29.1267 145.414 29.0027C145.54 28.8787 145.709 28.8095 145.885 28.8104H145.889L171.784 28.9715C171.916 28.9759 174.763 28.9802 176.271 25.2207L145.961 25.0193Z" fill="#464045"/>
</svg>
